<?xml version="1.0" encoding="UTF-8"?>
<svg width="2048px" height="280px" viewBox="0 0 2048 280" version="1.1" xmlns="http://www.w3.org/2000/svg" xmlns:xlink="http://www.w3.org/1999/xlink">
    <!-- Generator: Sketch 43.1 (39012) - http://www.bohemiancoding.com/sketch -->
    <title>Artboard</title>
    <desc>Created with Sketch.</desc>
    <defs></defs>
    <g id="Page-1" stroke="none" stroke-width="1" fill="none" fill-rule="evenodd">
        <g id="Artboard" transform="translate(1.000000, -752.000000)">
            <path d="M-319.163215,1014.2523 C-319.163215,1014.2523 755.833655,818.376052 1253.267,818.376052 C1750.70034,818.376052 2157.61854,968.890346 2244.69454,1052.17411 C2331.77055,1135.45787 2163.63089,1182.15401 2163.63089,1182.15401 C2163.63089,1182.15401 1852.50064,1243.0969 1377.68733,1182.15401 C902.87402,1121.21112 -27.174346,1166.45509 -27.174346,1166.45509 L-319.163215,1014.2523 Z" id="Path" fill="#E9E7DA"></path>
            <path d="M2105.02842,1209.27737 C2105.02842,1209.27737 1761.36881,1051.7159 1424.00699,962.965658 C1086.64518,874.215413 685.380086,800.653159 419.244691,787.642853 C-241.537967,755.339802 -660.448542,946.14716 -660.448542,946.14716 C-660.448542,946.14716 -357.67686,1100.02808 -361.235821,1101 C-364.794782,1101.97192 -424,930.125336 -424,930.125336 C-424,930.125336 -146.04664,733.664838 -223.253619,987.409262 C-279.8083,1173.27892 274.309501,1269.86432 700.121265,1324.73634 C1125.93303,1379.60836 1961.17201,1302.77131 2144.61409,1312.95082 C2340.558,1323.82408 2105.02842,1209.27737 2105.02842,1209.27737 Z" id="Path-2" fill="#4F6E5D"></path>
        </g>
    </g>
</svg>