<?xml version="1.0" encoding="UTF-8"?>
<svg width="100pt" height="100pt" version="1.1" viewBox="0 0 100 100" xmlns="http://www.w3.org/2000/svg">
 <path d="m96.5 47.5-31.898-31.898c-1.3984-1.3984-3.6016-1.3984-4.8984 0-1.3984 1.3984-1.3984 3.6016 0 4.8984l26 26h-79.703c-1.8984 0-3.5 1.6016-3.5 3.5s1.6016 3.5 3.5 3.5h79.699l-26 26c-1.3984 1.3984-1.3984 3.6016 0 4.8984 0.69922 0.69922 1.6016 1 2.5 1 0.89844 0 1.8008-0.30078 2.5-1l31.898-31.898c0.69922-0.69922 1-1.5 1-2.5 0.003906-1-0.49609-1.8008-1.0977-2.5z"/>
</svg>
