<?xml version="1.0" encoding="UTF-8"?>
<svg width="164px" height="195px" viewBox="0 0 164 195" version="1.1" xmlns="http://www.w3.org/2000/svg" xmlns:xlink="http://www.w3.org/1999/xlink">
    <!-- Generator: Sketch 52.6 (67491) - http://www.bohemiancoding.com/sketch -->
    <title>Group 5</title>
    <desc>Created with Sketch.</desc>
    <defs>
        <linearGradient x1="25.9667393%" y1="88.6025525%" x2="108.31233%" y2="23.489686%" id="linearGradient-1">
            <stop stop-color="#FFFFFF" stop-opacity="0.5" offset="0%"></stop>
            <stop stop-color="#000000" stop-opacity="0.5" offset="100%"></stop>
        </linearGradient>
        <polygon id="path-2" points="55.8855677 104.288568 55.127205 51.2765469 96.0002066 57.9989162 101.075257 82.1905488 104.302635 107.011358 80.4565515 116.729434 59.3535077 111.712034"></polygon>
        <path d="M88.490442,87.7010049 C94.9901416,87.7010049 103.059776,85.327214 107.314037,78.8848987 C111.554745,72.4631081 112.598315,62.990249 112.598315,53.2028355 C112.598315,38.892641 109.869621,23.8670966 101.795074,18.2487602 C100.04535,17.0312876 95.1321304,14.9963939 90.5699119,14.2384435 C87.3406494,13.7019456 84.2352896,14.2384435 82.7822957,14.2384435 C75.947942,14.2384435 71.2534337,15.1942061 63.7280324,22.6748997 C57.9884743,28.3803598 55.1703441,39.03713 54.5802695,46.6720303 C54.4747823,48.0369167 54.5802695,53.3351403 54.5802695,54.7428072 C54.5802695,57.038886 63.4214469,62.6611617 63.7280324,64.7995817 C66.0393662,80.9210291 77.0316899,87.7010049 88.490442,87.7010049 Z" id="path-3"></path>
    </defs>
    <g id="Page-1" stroke="none" stroke-width="1" fill="none" fill-rule="evenodd">
        <g id="Artboard" transform="translate(-674.000000, -169.000000)">
            <g id="Group-6" transform="translate(342.000000, 169.000000)">
                <g id="Group-5" transform="translate(332.000000, 0.000000)">
                    <circle id="Oval" fill="#D8D8D8" opacity="0.271182106" cx="82.5" cy="81.5" r="81.5"></circle>
                    <g id="Group-2" transform="translate(0.000000, 23.000000)">
                        <g id="Group">
                            <g id="Path-13">
                                <use fill="#EFA78F" xlink:href="#path-2"></use>
                                <use fill-opacity="0.1" fill="url(#linearGradient-1)" xlink:href="#path-2"></use>
                            </g>
                            <path d="M0,158.489608 C4.67980895,136.407195 13.0756174,122.462673 25.1874255,116.656042 C37.2992335,110.849411 47.521705,106.076193 55.8548398,102.336388 C59.9488418,109.270964 68.1472991,112.738252 80.4502117,112.738252 C83.1792792,112.738252 90.737963,111.714674 94.1150049,110.470478 C98.7563898,108.760463 101.921438,105.725552 103.610149,101.365745 L137.124005,114.680121 C141.902254,117.150341 145.289135,119.495016 147.284648,121.714144 C151.224664,126.095672 153.863528,131.969344 155.782244,138.342641 C159.686374,151.310787 159.103064,152.510759 159.256222,155.438365 C159.297941,156.235836 159.242989,157.163359 159.530448,158.489608 C160.425617,162.619646 158.908838,164.972565 154.980109,165.548367 L28.6558071,169.739081 L2.11286475,165.548367 L0,158.489608 Z" id="Path-9" fill="#FCC149"></path>
                            <g id="Oval">
                                <use fill="#EFA78F" xlink:href="#path-3"></use>
                                <use fill-opacity="0.1" fill="url(#linearGradient-1)" xlink:href="#path-3"></use>
                            </g>
                            <path d="M55.1593328,58 C50.8396903,40.4731411 51.3482717,28.1073697 56.6850769,20.9026856 C59.4333601,17.1925049 62.284224,13.9799731 65.6411463,11.6709091 C72.0622777,7.25412435 78.9595429,5.51494192 80.881162,5.51494192 C83.8073901,5.51494192 81.9472118,4.89262082 91.8362005,6.72656236 C92.1338617,6.78176449 93.0400025,5.35324853 93.185329,5.09565956 C94.7015281,2.40821985 98.7272027,-0.291704892 101.33959,0.0254650413 C102.851687,0.20904881 105.361725,0.984870975 106.178017,3.24696806 C106.770452,4.88871436 105.055493,9.92601346 106.178017,9.39868849 C107.85994,8.60857611 109.777643,7.51537915 111.255734,7.34921745 C113.353983,7.11333981 115.975529,7.11333981 117.173646,8.04676653 C117.9997,8.69032661 120.844852,11.6709091 119.751942,16.395019 C119.497411,17.4952264 117.322539,19.4547335 114.359339,21.4231375 C112.664483,22.5490012 110.238747,23.4398419 107.082132,24.0956596 C102.499532,25.874101 94.163677,25.6019379 82.0745674,23.2791703 C79.9766175,22.876076 81.8649589,23.2488936 81.6970504,23.2791703 C81.3650024,23.339044 80.883462,23.4979552 80.881162,23.7393702 C80.8790028,23.9660106 80.8790028,24.4181071 80.881162,25.0956596 C81.0417415,30.0279846 78.0346828,34.0279846 71.859986,37.0956596 C68.2795706,38.8744596 70.5884388,37.6231852 71.0523982,37.5766334 C71.276514,37.5541466 71.276514,37.7470522 71.0523982,38.1553502 L70.8785859,52.0956596 C66.6258602,52.1368311 63.3772275,52.6604468 61.1326878,53.6665068 C58.8881482,54.6725667 56.8970298,56.1170644 55.1593328,58 Z" id="Path-18" fill="#1C4E61"></path>
                            <path d="M159.199267,154 C159.328831,155.585265 159.393613,156.76834 159.393613,157.549226 C159.393613,158.330112 152.262409,158.842601 138,159.086694 L138,157.549226 C142.299926,156.130172 145.601409,155.226468 147.904449,154.838114 C150.207489,154.449761 153.972429,154.170389 159.199267,154 Z" id="Path-12" fill="#E29C83"></path>
                            <g id="Group-4" transform="translate(58.000000, 44.000000)">
                                <circle id="Oval" fill="#E57E6A" cx="27" cy="14" r="5"></circle>
                                <circle id="Oval" fill="#3C1F13" cx="34.5" cy="3.5" r="1.5"></circle>
                                <circle id="Oval" fill="#3C1F13" cx="50.5" cy="3.5" r="1.5"></circle>
                                <path d="M8.17172484,2.64940766 L8.17172484,17.0241723 C3.38761308,15.9551947 0.995557199,13.6839744 0.995557199,10.2105113 C0.995557199,7.60164717 1.26857897,5.72497798 3.1302525,3.99100354 C4.11406402,3.07467531 5.7945548,2.62747668 8.17172484,2.64940766 Z" id="Path-14" fill="#E57E6A"></path>
                                <path d="M44.189842,0.419282358 L42.8400913,18.8817103 L52,17.4897013 C54.1127354,16.4965671 54.2958535,14.8333333 52.5493543,12.5 C50.802855,10.1666667 48.0163509,6.13976079 44.189842,0.419282358 Z" id="Path-15" fill="#E57E6A"></path>
                                <path d="M40.22425,22.0327501 C40.7860969,21.8385389 43.227476,22.987585 44.73413,22.987585 C46.240784,22.987585 47.7760277,22.987585 48.646954,22.4920332 C49.5178802,21.9964815 51.1413173,21.5574566 50.5957052,23.55328 C50.0500932,25.5491034 47.3571014,26.7173301 45.8580988,26.7173301 C44.3590963,26.7173301 40.1960945,25.6926423 39.6736968,24.3217125 C39.151299,22.9507828 39.6624031,22.2269613 40.22425,22.0327501 Z" id="Path-16" fill="#FFFFFF"></path>
                            </g>
                        </g>
                        <path d="M1.01811628,154 C0.197837455,156.702523 -0.126777936,158.231126 0.0442701121,158.585809 C0.21531816,158.940493 5.53257862,158.594965 15.9960515,157.549226 C12.5375295,156.284573 9.87181427,155.434143 7.99890593,154.997935 C6.1259976,154.561727 3.79906771,154.229082 1.01811628,154 Z" id="Path-10" fill="#E29C83"></path>
                        <rect id="Rectangle" fill="#FFFFFF" x="0" y="157" width="163" height="15"></rect>
                    </g>
                </g>
            </g>
        </g>
    </g>
</svg>